<svg width="20" height="20" viewBox="0 0 20 20" fill="none" xmlns="http://www.w3.org/2000/svg">
<path d="M6.66667 14.7917H13.3333M16.25 10.2083H16.875C17.2065 10.2083 17.5245 10.34 17.7589 10.5745C17.9933 10.8089 18.125 11.1268 18.125 11.4583V13.125C18.125 13.4565 17.9933 13.7745 17.7589 14.0089C17.5245 14.2433 17.2065 14.375 16.875 14.375H16.25M16.25 10.2083C16.2511 9.79764 16.171 9.39079 16.0144 9.01115C15.8577 8.63151 15.6276 8.28658 15.3372 7.99617C15.0468 7.70577 14.7018 7.47563 14.3222 7.31897C13.9425 7.16231 13.5357 7.08223 13.125 7.08333H6.875C6.46431 7.08223 6.05745 7.16231 5.67781 7.31897C5.29818 7.47563 4.95324 7.70577 4.66284 7.99617C4.37244 8.28658 4.14229 8.63151 3.98564 9.01115C3.82898 9.39079 3.7489 9.79764 3.75 10.2083M16.25 10.2083V14.375M16.25 14.375C16.2511 14.7857 16.171 15.1925 16.0144 15.5722C15.8577 15.9518 15.6276 16.2968 15.3372 16.5872C15.0468 16.8776 14.7018 17.1077 14.3222 17.2644C13.9425 17.421 13.5357 17.5011 13.125 17.5H6.875C6.46431 17.5011 6.05745 17.421 5.67781 17.2644C5.29818 17.1077 4.95324 16.8776 4.66284 16.5872C4.37244 16.2968 4.14229 15.9518 3.98564 15.5722C3.82898 15.1925 3.7489 14.7857 3.75 14.375M3.75 10.2083H3.125C2.79348 10.2083 2.47554 10.34 2.24112 10.5745C2.0067 10.8089 1.875 11.1268 1.875 11.4583V13.125C1.875 13.4565 2.0067 13.7745 2.24112 14.0089C2.47554 14.2433 2.79348 14.375 3.125 14.375H3.75M3.75 10.2083V14.375M10 6.66667V5M10 5C10.3315 5 10.6495 4.8683 10.8839 4.63388C11.1183 4.39946 11.25 4.08152 11.25 3.75C11.25 3.41848 11.1183 3.10054 10.8839 2.86612C10.6495 2.6317 10.3315 2.5 10 2.5C9.66848 2.5 9.35054 2.6317 9.11612 2.86612C8.8817 3.10054 8.75 3.41848 8.75 3.75C8.75 4.08152 8.8817 4.39946 9.11612 4.63388C9.35054 4.8683 9.66848 5 10 5ZM13.5417 11.0417C13.5417 11.3732 13.41 11.6911 13.1756 11.9256C12.9411 12.16 12.6232 12.2917 12.2917 12.2917C11.9601 12.2917 11.6422 12.16 11.4078 11.9256C11.1734 11.6911 11.0417 11.3732 11.0417 11.0417C11.0417 10.7101 11.1734 10.3922 11.4078 10.1578C11.6422 9.92336 11.9601 9.79167 12.2917 9.79167C12.6232 9.79167 12.9411 9.92336 13.1756 10.1578C13.41 10.3922 13.5417 10.7101 13.5417 11.0417ZM8.95833 11.0417C8.95833 11.3732 8.82664 11.6911 8.59222 11.9256C8.3578 12.16 8.03985 12.2917 7.70833 12.2917C7.37681 12.2917 7.05887 12.16 6.82445 11.9256C6.59003 11.6911 6.45833 11.3732 6.45833 11.0417C6.45833 10.7101 6.59003 10.3922 6.82445 10.1578C7.05887 9.92336 7.37681 9.79167 7.70833 9.79167C8.03985 9.79167 8.3578 9.92336 8.59222 10.1578C8.82664 10.3922 8.95833 10.7101 8.95833 11.0417Z" stroke="#2B7FFF" stroke-width="1.5" stroke-linecap="round" stroke-linejoin="round"/>
</svg>
