<svg width="20" height="20" viewBox="0 0 20 20" fill="none" xmlns="http://www.w3.org/2000/svg">
<path d="M18.3333 10H13.3333L11.6667 12.5H8.33332L6.66666 10H1.66666" stroke="#0A0A0A" stroke-width="1.66667" stroke-linecap="round" stroke-linejoin="round"/>
<path d="M4.54166 4.25801L1.66666 9.99967V14.9997C1.66666 15.4417 1.84225 15.8656 2.15481 16.1782C2.46737 16.4907 2.8913 16.6663 3.33332 16.6663H16.6667C17.1087 16.6663 17.5326 16.4907 17.8452 16.1782C18.1577 15.8656 18.3333 15.4417 18.3333 14.9997V9.99967L15.4583 4.25801C15.3203 3.98033 15.1076 3.74665 14.8441 3.58324C14.5806 3.41983 14.2767 3.33317 13.9667 3.33301H6.03332C5.72325 3.33317 5.41938 3.41983 5.15586 3.58324C4.89234 3.74665 4.67964 3.98033 4.54166 4.25801Z" stroke="#0A0A0A" stroke-width="1.66667" stroke-linecap="round" stroke-linejoin="round"/>
</svg>
