<svg width="20" height="20" viewBox="0 0 20 20" fill="none" xmlns="http://www.w3.org/2000/svg">
<g clip-path="url(#clip0_4297_1648)">
<path d="M2.49334 13.6184C2.61587 13.9275 2.64315 14.2662 2.57167 14.5909L1.68417 17.3326C1.65558 17.4716 1.66297 17.6156 1.70565 17.751C1.74834 17.8864 1.82489 18.0086 1.92806 18.1061C2.03123 18.2036 2.1576 18.2732 2.29517 18.3081C2.43275 18.3431 2.57697 18.3423 2.71417 18.3059L5.55834 17.4742C5.86477 17.4135 6.18211 17.44 6.47417 17.5509C8.25366 18.3819 10.2695 18.5577 12.166 18.0473C14.0625 17.5369 15.7177 16.3731 16.8398 14.7612C17.9618 13.1493 18.4784 11.1929 18.2986 9.23719C18.1187 7.28148 17.2539 5.45213 15.8567 4.0719C14.4595 2.69167 12.6198 1.84927 10.662 1.69332C8.70423 1.53737 6.75429 2.07789 5.15621 3.21952C3.55813 4.36115 2.41462 6.03052 1.92742 7.9331C1.44022 9.83568 1.64065 11.8492 2.49334 13.6184Z" stroke="#0A0A0A" stroke-width="1.66667" stroke-linecap="round" stroke-linejoin="round"/>
</g>
<defs>
<clipPath id="clip0_4297_1648">
<rect width="20" height="20" fill="white"/>
</clipPath>
</defs>
</svg>
