<svg width="19" height="19" viewBox="0 0 19 19" fill="none" xmlns="http://www.w3.org/2000/svg">
<path d="M8.34951 1.51334C8.38521 1.32217 8.48665 1.14952 8.63625 1.02527C8.78586 0.901021 8.9742 0.833008 9.16867 0.833008C9.36314 0.833008 9.55149 0.901021 9.70109 1.02527C9.85069 1.14952 9.95213 1.32217 9.98784 1.51334L10.8637 6.145C10.9259 6.47429 11.0859 6.77718 11.3229 7.01415C11.5598 7.25111 11.8627 7.41113 12.192 7.47334L16.8237 8.34917C17.0148 8.38488 17.1875 8.48631 17.3117 8.63592C17.436 8.78552 17.504 8.97387 17.504 9.16834C17.504 9.36281 17.436 9.55115 17.3117 9.70076C17.1875 9.85036 17.0148 9.9518 16.8237 9.9875L12.192 10.8633C11.8627 10.9255 11.5598 11.0856 11.3229 11.3225C11.0859 11.5595 10.9259 11.8624 10.8637 12.1917L9.98784 16.8233C9.95213 17.0145 9.85069 17.1872 9.70109 17.3114C9.55149 17.4357 9.36314 17.5037 9.16867 17.5037C8.9742 17.5037 8.78586 17.4357 8.63625 17.3114C8.48665 17.1872 8.38521 17.0145 8.34951 16.8233L7.47367 12.1917C7.41147 11.8624 7.25144 11.5595 7.01448 11.3225C6.77752 11.0856 6.47463 10.9255 6.14534 10.8633L1.51367 9.9875C1.32251 9.9518 1.14985 9.85036 1.0256 9.70076C0.901357 9.55115 0.833344 9.36281 0.833344 9.16834C0.833344 8.97387 0.901357 8.78552 1.0256 8.63592C1.14985 8.48631 1.32251 8.38488 1.51367 8.34917L6.14534 7.47334C6.47463 7.41113 6.77752 7.25111 7.01448 7.01415C7.25144 6.77718 7.41147 6.47429 7.47367 6.145L8.34951 1.51334Z" stroke="white" stroke-width="1.66667" stroke-linecap="round" stroke-linejoin="round"/>
</svg>
