<svg width="40" height="40" viewBox="0 0 40 40" fill="none" xmlns="http://www.w3.org/2000/svg">
<path d="M10 0.5H30C35.2467 0.5 39.5 4.7533 39.5 10V30C39.5 35.2467 35.2467 39.5 30 39.5H10C4.7533 39.5 0.5 35.2467 0.5 30V10C0.5 4.7533 4.7533 0.5 10 0.5Z" stroke="#09ACE2"/>
<path d="M27.4525 24.0292C26.9957 21.303 25.6904 18.7904 23.7225 16.8492C23.2917 16.43 23.0767 16.2209 22.6008 16.0275C22.125 15.8334 21.7158 15.8334 20.8983 15.8334H19.1017C18.2842 15.8334 17.875 15.8334 17.3992 16.0275C16.9242 16.2209 16.7075 16.43 16.2775 16.8492C14.3095 18.7904 13.0042 21.303 12.5475 24.0292C12.1417 26.4775 14.4 28.3334 16.9233 28.3334H23.0767C25.6008 28.3334 27.86 26.4775 27.4517 24.0292" stroke="#09ACE2" stroke-width="1.5" stroke-linecap="round" stroke-linejoin="round"/>
<path d="M16.0475 13.7025C15.875 13.4525 15.6258 13.1125 16.1408 13.0359C16.67 12.9559 17.2192 13.3175 17.7575 13.3109C18.2433 13.3034 18.4908 13.0875 18.7575 12.7792C19.0375 12.455 19.4708 11.6667 20 11.6667C20.5292 11.6667 20.9625 12.455 21.2425 12.7792C21.5092 13.0875 21.7567 13.3042 22.2425 13.31C22.7808 13.3184 23.33 12.9559 23.8592 13.035C24.3742 13.1125 24.125 13.4517 23.9525 13.7017L23.1758 14.8342C22.8425 15.3175 22.6767 15.5592 22.3283 15.6967C21.98 15.8342 21.5308 15.8334 20.6317 15.8334H19.3683C18.4683 15.8334 18.0192 15.8334 17.6717 15.6967C17.3242 15.56 17.1575 15.3167 16.8242 14.8334L16.0475 13.7025Z" stroke="#09ACE2" stroke-width="1.5" stroke-linejoin="round"/>
<path d="M21.3558 20.7659C21.1758 20.1 20.2583 19.5 19.1575 19.9492C18.0566 20.3984 17.8825 21.8425 19.5466 21.9967C20.3 22.0659 20.79 21.9159 21.2391 22.34C21.6891 22.7634 21.7725 23.9425 20.6233 24.26C19.4758 24.5775 18.3383 24.0817 18.215 23.3767M19.8683 19.16V19.7942M19.8683 24.3575V24.9942" stroke="#09ACE2" stroke-width="1.5" stroke-linecap="round" stroke-linejoin="round"/>
</svg>
