<svg width="40" height="40" viewBox="0 0 40 40" fill="none" xmlns="http://www.w3.org/2000/svg">
<path d="M10 0.5H30C35.2467 0.5 39.5 4.7533 39.5 10V30C39.5 35.2467 35.2467 39.5 30 39.5H10C4.7533 39.5 0.5 35.2467 0.5 30V10C0.5 4.7533 4.7533 0.5 10 0.5Z" stroke="#E937AD"/>
<g clip-path="url(#clip0_4315_120673)">
<path d="M15.8334 21.6667L17.7442 19.7559C17.9005 19.5996 18.1124 19.5119 18.3334 19.5119C18.5543 19.5119 18.7663 19.5996 18.9225 19.7559L20.2442 21.0775C20.4005 21.2338 20.6124 21.3215 20.8334 21.3215C21.0543 21.3215 21.2663 21.2338 21.4225 21.0775L24.1667 18.3334M24.1667 18.3334V20.4167M24.1667 18.3334H22.0834" stroke="#E837AE" stroke-width="1.5" stroke-linecap="round" stroke-linejoin="round"/>
<path d="M28.3334 20C28.3334 23.9284 28.3334 25.8925 27.1125 27.1125C25.8934 28.3334 23.9284 28.3334 20 28.3334C16.0717 28.3334 14.1075 28.3334 12.8867 27.1125C11.6667 25.8934 11.6667 23.9284 11.6667 20C11.6667 16.0717 11.6667 14.1075 12.8867 12.8867C14.1084 11.6667 16.0717 11.6667 20 11.6667C23.9284 11.6667 25.8925 11.6667 27.1125 12.8867C27.9242 13.6984 28.1959 14.8392 28.2875 16.6667" stroke="#E837AE" stroke-width="1.5" stroke-linecap="round"/>
</g>
<defs>
<clipPath id="clip0_4315_120673">
<rect width="20" height="20" fill="white" transform="translate(10 10)"/>
</clipPath>
</defs>
</svg>
