<svg width="32" height="32" viewBox="0 0 32 32" fill="none" xmlns="http://www.w3.org/2000/svg">
<path d="M0 10C0 4.47715 4.47715 0 10 0H22C27.5228 0 32 4.47715 32 10V22C32 27.5228 27.5228 32 22 32H10C4.47715 32 0 27.5228 0 22V10Z" fill="#FFE2E2"/>
<g clip-path="url(#clip0_4315_120282)">
<path d="M16 12V16L18.6667 17.3333" stroke="#E7000B" stroke-width="1.33333" stroke-linecap="round" stroke-linejoin="round"/>
<path d="M16 22.6666C19.6819 22.6666 22.6667 19.6819 22.6667 16C22.6667 12.3181 19.6819 9.33331 16 9.33331C12.3181 9.33331 9.33337 12.3181 9.33337 16C9.33337 19.6819 12.3181 22.6666 16 22.6666Z" stroke="#E7000B" stroke-width="1.33333" stroke-linecap="round" stroke-linejoin="round"/>
</g>
<defs>
<clipPath id="clip0_4315_120282">
<rect width="16" height="16" fill="white" transform="translate(8 8)"/>
</clipPath>
</defs>
</svg>
