<svg width="32" height="32" viewBox="0 0 32 32" fill="none" xmlns="http://www.w3.org/2000/svg">
<path d="M0 10C0 4.47715 4.47715 0 10 0H22C27.5228 0 32 4.47715 32 10V22C32 27.5228 27.5228 32 22 32H10C4.47715 32 0 27.5228 0 22V10Z" fill="#DCFCE7"/>
<path d="M16 9.33331V22.6666" stroke="#00A63E" stroke-width="1.33333" stroke-linecap="round" stroke-linejoin="round"/>
<path d="M19.3333 11.3333H14.3333C13.7145 11.3333 13.121 11.5791 12.6834 12.0167C12.2458 12.4543 12 13.0478 12 13.6666C12 14.2855 12.2458 14.879 12.6834 15.3166C13.121 15.7541 13.7145 16 14.3333 16H17.6667C18.2855 16 18.879 16.2458 19.3166 16.6834C19.7542 17.121 20 17.7145 20 18.3333C20 18.9522 19.7542 19.5456 19.3166 19.9832C18.879 20.4208 18.2855 20.6666 17.6667 20.6666H12" stroke="#00A63E" stroke-width="1.33333" stroke-linecap="round" stroke-linejoin="round"/>
</svg>
