<svg width="20" height="20" viewBox="0 0 20 20" fill="none" xmlns="http://www.w3.org/2000/svg">
<path d="M9.99996 14.1667C10.2361 14.1667 10.4341 14.0867 10.5941 13.9267C10.7541 13.7667 10.8338 13.5689 10.8333 13.3334V10C10.8333 9.76391 10.7533 9.56613 10.5933 9.40669C10.4333 9.24724 10.2355 9.16724 9.99996 9.16669C9.7644 9.16613 9.56663 9.24613 9.40663 9.40669C9.24663 9.56724 9.16663 9.76502 9.16663 10V13.3334C9.16663 13.5695 9.24663 13.7675 9.40663 13.9275C9.56663 14.0875 9.7644 14.1672 9.99996 14.1667ZM9.99996 7.50002C10.2361 7.50002 10.4341 7.42002 10.5941 7.26002C10.7541 7.10002 10.8338 6.90224 10.8333 6.66669C10.8327 6.43113 10.7527 6.23335 10.5933 6.07335C10.4338 5.91335 10.2361 5.83335 9.99996 5.83335C9.76385 5.83335 9.56607 5.91335 9.40663 6.07335C9.24718 6.23335 9.16718 6.43113 9.16663 6.66669C9.16607 6.90224 9.24607 7.1003 9.40663 7.26085C9.56718 7.42141 9.76496 7.50113 9.99996 7.50002ZM9.99996 18.3334C8.84718 18.3334 7.76385 18.1145 6.74996 17.6767C5.73607 17.2389 4.85413 16.6453 4.10413 15.8959C3.35413 15.1464 2.76052 14.2645 2.32329 13.25C1.88607 12.2356 1.66718 11.1522 1.66663 10C1.66607 8.8478 1.88496 7.76446 2.32329 6.75002C2.76163 5.73558 3.35524 4.85363 4.10413 4.10419C4.85302 3.35474 5.73496 2.76113 6.74996 2.32335C7.76496 1.88558 8.84829 1.66669 9.99996 1.66669C11.1516 1.66669 12.235 1.88558 13.25 2.32335C14.265 2.76113 15.1469 3.35474 15.8958 4.10419C16.6447 4.85363 17.2386 5.73558 17.6775 6.75002C18.1163 7.76446 18.335 8.8478 18.3333 10C18.3316 11.1522 18.1127 12.2356 17.6766 13.25C17.2405 14.2645 16.6469 15.1464 15.8958 15.8959C15.1447 16.6453 14.2627 17.2392 13.25 17.6775C12.2372 18.1159 11.1538 18.3345 9.99996 18.3334ZM9.99996 16.6667C11.8611 16.6667 13.4375 16.0209 14.7291 14.7292C16.0208 13.4375 16.6666 11.8611 16.6666 10C16.6666 8.13891 16.0208 6.56252 14.7291 5.27085C13.4375 3.97919 11.8611 3.33335 9.99996 3.33335C8.13885 3.33335 6.56246 3.97919 5.27079 5.27085C3.97913 6.56252 3.33329 8.13891 3.33329 10C3.33329 11.8611 3.97913 13.4375 5.27079 14.7292C6.56246 16.0209 8.13885 16.6667 9.99996 16.6667Z" fill="black"/>
</svg>
