<svg width="21" height="21" viewBox="0 0 21 21" fill="none" xmlns="http://www.w3.org/2000/svg">
<path d="M7.875 19.0312H13.125M11.8125 6.5625L9.84375 8.53125L11.1562 9.84375L9.1875 11.8125M17.0625 8.53125V9.84375C17.0625 10.8938 16.1871 12.0317 15.75 12.4688L13.7812 14.4375L13.125 16.4062H7.875L7.21875 14.4375L5.25 12.4688C4.81294 12.0317 3.9375 10.8938 3.9375 9.84375V8.53125C3.9375 6.79077 4.6289 5.12157 5.85961 3.89086C7.09032 2.66015 8.75952 1.96875 10.5 1.96875C12.2405 1.96875 13.9097 2.66015 15.1404 3.89086C16.3711 5.12157 17.0625 6.79077 17.0625 8.53125Z" stroke="#2B7FFF"/>
</svg>
