<svg width="15" height="15" viewBox="0 0 15 15" fill="none" xmlns="http://www.w3.org/2000/svg">
<path d="M14 7.33335H12.3466C12.0553 7.33273 11.7717 7.42756 11.5394 7.60333C11.307 7.77911 11.1386 8.02615 11.06 8.30669L9.49329 13.88C9.48319 13.9146 9.46214 13.945 9.43329 13.9667C9.40444 13.9883 9.36935 14 9.33329 14C9.29723 14 9.26214 13.9883 9.23329 13.9667C9.20444 13.945 9.18339 13.9146 9.17329 13.88L5.49329 0.786687C5.48319 0.752068 5.46214 0.721657 5.43329 0.70002C5.40444 0.678383 5.36935 0.666687 5.33329 0.666687C5.29723 0.666687 5.26214 0.678383 5.23329 0.70002C5.20444 0.721657 5.18339 0.752068 5.17329 0.786687L3.60663 6.36002C3.52827 6.63946 3.36088 6.8857 3.12987 7.06136C2.89886 7.23703 2.61684 7.33252 2.32663 7.33335H0.666626" stroke="#00A63E" stroke-width="1.33333" stroke-linecap="round" stroke-linejoin="round"/>
</svg>
