<svg width="40" height="40" viewBox="0 0 40 40" fill="none" xmlns="http://www.w3.org/2000/svg">
<path d="M10 0.5H30C35.2467 0.5 39.5 4.7533 39.5 10V30C39.5 35.2467 35.2467 39.5 30 39.5H10C4.7533 39.5 0.5 35.2467 0.5 30V10C0.5 4.7533 4.7533 0.5 10 0.5Z" stroke="#01BF74"/>
<path d="M23.0625 28.3125H18.6875C15.3879 28.3125 13.7376 28.3125 12.713 27.287C11.6884 26.2615 11.6875 24.6121 11.6875 21.3125V15.1875M11.6875 15.1875H28.3125M11.6875 15.1875L12.2125 14.4875C13.2432 13.1137 13.7586 12.4269 14.4971 12.0567C15.2365 11.6875 16.0949 11.6875 17.8125 11.6875H22.1875C23.9051 11.6875 24.7635 11.6875 25.5029 12.0567C26.2414 12.4269 26.7567 13.1137 27.7875 14.4875L28.3125 15.1875M28.3125 15.1875V21.3125" stroke="#00BF75" stroke-width="1.5" stroke-linecap="round" stroke-linejoin="round"/>
<path d="M23.5 21.3116C23.5 21.3116 21.3125 22.9225 21.3125 23.4991C21.3125 24.0758 23.5 25.6866 23.5 25.6866M21.75 23.4991H25.9062C26.5445 23.4991 27.1567 23.7527 27.608 24.204C28.0594 24.6554 28.3129 25.2675 28.3129 25.9058C28.3129 26.5441 28.0594 27.1563 27.608 27.6076C27.1567 28.059 26.5445 28.3125 25.9062 28.3125" stroke="#00BF75" stroke-width="1.5" stroke-linecap="round" stroke-linejoin="round"/>
</svg>
