<svg width="24" height="24" viewBox="0 0 24 24" fill="none" xmlns="http://www.w3.org/2000/svg">
<path fill-rule="evenodd" clip-rule="evenodd" d="M7.47645 8.315C9.88445 9.245 12.7779 9.245 15.1854 8.314C16.2338 9.42022 17.1031 10.6832 17.7619 12.0575C18.1979 12.1245 18.6154 12.2475 19.0069 12.419C18.2934 10.597 17.0864 8.826 15.7889 7.5L17.6359 4.8C17.3338 4.60329 17.0188 4.42722 16.6929 4.273C15.4729 3.6805 13.5134 3 11.3554 3C9.15245 3 7.13995 3.71 5.91245 4.3105C5.79045 4.3705 5.67645 4.42883 5.57045 4.4855C5.35695 4.6005 5.17695 4.7075 5.03595 4.8L6.86995 7.5C2.57495 12.019 -0.625051 20.9985 11.3554 20.9985C12.1755 21.0029 12.995 20.9528 13.8084 20.8485C13.4858 20.5812 13.1981 20.2745 12.9519 19.9355C12.4613 19.9768 11.9291 19.9978 11.3554 19.9985C8.46295 19.9985 6.64895 19.453 5.56545 18.703C4.52795 17.9845 4.07245 17.018 4.00795 15.887C3.94095 14.712 4.30045 13.3405 4.97395 11.952C5.61645 10.628 6.51345 9.3535 7.47645 8.315ZM14.6019 7.464L16.0809 5.3025C14.7059 5.4015 13.0694 5.7245 11.4944 6.1805C10.3694 6.5055 9.11995 6.456 7.96195 6.2425C7.67025 6.18849 7.38057 6.12412 7.09345 6.0495L8.05345 7.463C10.1114 8.1955 12.5444 8.1955 14.6019 7.464ZM6.90195 4.958C7.30195 5.077 7.71945 5.1805 8.14345 5.259C9.21845 5.457 10.2969 5.486 11.2164 5.2195C12.2885 4.90705 13.379 4.66141 14.4814 4.484C13.5614 4.207 12.4859 4 11.3549 4C9.63245 4 8.02645 4.4805 6.90195 4.958Z" fill="#2B7FFF"/>
<path fill-rule="evenodd" clip-rule="evenodd" d="M11.335 14C11.8455 14 12.3115 14.1915 12.665 14.5065C12.4784 14.8306 12.3288 15.1746 12.219 15.532C12.1339 15.3713 12.0066 15.2369 11.8509 15.1432C11.6951 15.0495 11.5167 15 11.335 15V17C11.5935 17 11.829 16.902 12.0065 16.741C11.9869 17.115 12.0093 17.49 12.0735 17.859C11.8384 17.9523 11.5878 18.0001 11.335 18V18.5H10.335V18C9.92129 18.0001 9.51777 17.8719 9.18 17.633C8.84223 17.3942 8.58682 17.0565 8.44896 16.6665C8.4048 16.5415 8.41213 16.404 8.46933 16.2843C8.52653 16.1647 8.62891 16.0727 8.75396 16.0285C8.87901 15.9843 9.01648 15.9917 9.13613 16.0489C9.25578 16.1061 9.3478 16.2085 9.39196 16.3335C9.46093 16.5285 9.58865 16.6973 9.75753 16.8166C9.92642 16.936 10.1282 17.0001 10.335 17V15C9.80453 15 9.29582 14.7893 8.92075 14.4142C8.54568 14.0391 8.33496 13.5304 8.33496 13C8.33496 12.4696 8.54568 11.9609 8.92075 11.5858C9.29582 11.2107 9.80453 11 10.335 11V10.5H11.335V11C11.7486 10.9999 12.1522 11.1281 12.4899 11.367C12.8277 11.6058 13.0831 11.9435 13.221 12.3335C13.2428 12.3954 13.2523 12.461 13.2488 12.5266C13.2453 12.5922 13.2289 12.6564 13.2006 12.7157C13.1723 12.7749 13.1326 12.828 13.0837 12.8719C13.0349 12.9158 12.9779 12.9496 12.916 12.9715C12.854 12.9934 12.7884 13.0028 12.7229 12.9993C12.6573 12.9958 12.593 12.9795 12.5338 12.9511C12.4745 12.9228 12.4215 12.8831 12.3776 12.8343C12.3337 12.7854 12.2998 12.7284 12.278 12.6665C12.209 12.4715 12.0813 12.3027 11.9124 12.1834C11.7435 12.064 11.5418 11.9999 11.335 12V14ZM10.335 12C10.0697 12 9.81539 12.1054 9.62785 12.2929C9.44032 12.4804 9.33496 12.7348 9.33496 13C9.33496 13.2652 9.44032 13.5196 9.62785 13.7071C9.81539 13.8946 10.0697 14 10.335 14V12Z" fill="#2B7FFF"/>
<path d="M17.4999 17.21L18.0949 16.6765L18.7624 17.4215L16.9999 19.0005L15.2379 17.4205L15.9054 16.676L16.4999 17.2095V15H17.4999V17.21Z" fill="#2B7FFF"/>
<path fill-rule="evenodd" clip-rule="evenodd" d="M17 21C18.0609 21 19.0783 20.5786 19.8284 19.8284C20.5786 19.0783 21 18.0609 21 17C21 15.9391 20.5786 14.9217 19.8284 14.1716C19.0783 13.4214 18.0609 13 17 13C15.9391 13 14.9217 13.4214 14.1716 14.1716C13.4214 14.9217 13 15.9391 13 17C13 18.0609 13.4214 19.0783 14.1716 19.8284C14.9217 20.5786 15.9391 21 17 21ZM17 20C17.7956 20 18.5587 19.6839 19.1213 19.1213C19.6839 18.5587 20 17.7956 20 17C20 16.2044 19.6839 15.4413 19.1213 14.8787C18.5587 14.3161 17.7956 14 17 14C16.2044 14 15.4413 14.3161 14.8787 14.8787C14.3161 15.4413 14 16.2044 14 17C14 17.7956 14.3161 18.5587 14.8787 19.1213C15.4413 19.6839 16.2044 20 17 20Z" fill="#2B7FFF"/>
</svg>
