<svg width="16" height="16" viewBox="0 0 16 16" fill="none" xmlns="http://www.w3.org/2000/svg">
<path d="M2.66663 12C2.66663 11.2927 2.94758 10.6145 3.44767 10.1144C3.94777 9.61426 4.62605 9.33331 5.33329 9.33331H10.6666C11.3739 9.33331 12.0521 9.61426 12.5522 10.1144C13.0523 10.6145 13.3333 11.2927 13.3333 12C13.3333 12.3536 13.1928 12.6927 12.9428 12.9428C12.6927 13.1928 12.3536 13.3333 12 13.3333H3.99996C3.64634 13.3333 3.3072 13.1928 3.05715 12.9428C2.8071 12.6927 2.66663 12.3536 2.66663 12Z" stroke="#364153" stroke-width="2" stroke-linejoin="round"/>
<path d="M8 6.66666C9.10457 6.66666 10 5.77123 10 4.66666C10 3.56209 9.10457 2.66666 8 2.66666C6.89543 2.66666 6 3.56209 6 4.66666C6 5.77123 6.89543 6.66666 8 6.66666Z" stroke="#364153" stroke-width="2"/>
</svg>
