<svg width="20" height="20" viewBox="0 0 20 20" fill="none" xmlns="http://www.w3.org/2000/svg">
<g clip-path="url(#clip0_4315_120606)">
<path d="M2.49328 13.6183C2.61581 13.9274 2.64309 14.2661 2.57161 14.5908L1.68411 17.3324C1.65552 17.4715 1.66291 17.6155 1.70559 17.7509C1.74827 17.8863 1.82483 18.0085 1.928 18.106C2.03117 18.2035 2.15754 18.273 2.29511 18.308C2.43269 18.343 2.57691 18.3422 2.71411 18.3058L5.55828 17.4741C5.86471 17.4133 6.18205 17.4399 6.47411 17.5508C8.2536 18.3818 10.2694 18.5576 12.1659 18.0472C14.0624 17.5368 15.7177 16.373 16.8397 14.7611C17.9617 13.1492 18.4784 11.1928 18.2985 9.23707C18.1187 7.28136 17.2539 5.45201 15.8567 4.07178C14.4595 2.69155 12.6197 1.84915 10.6619 1.6932C8.70416 1.53724 6.75423 2.07777 5.15615 3.2194C3.55807 4.36103 2.41456 6.0304 1.92736 7.93298C1.44016 9.83556 1.64059 11.8491 2.49328 13.6183Z" stroke="#2B7FFF" stroke-width="1.66667" stroke-linecap="round" stroke-linejoin="round"/>
</g>
<defs>
<clipPath id="clip0_4315_120606">
<rect width="20" height="20" fill="white"/>
</clipPath>
</defs>
</svg>
