<svg width="51" height="48" viewBox="0 0 51 48" fill="none" xmlns="http://www.w3.org/2000/svg">
<g clip-path="url(#clip0_4297_1576)" filter="url(#filter0_d_4297_1576)">
<path d="M24.3495 16.3454C24.3852 16.1542 24.4867 15.9815 24.6363 15.8573C24.7859 15.7331 24.9742 15.665 25.1687 15.665C25.3631 15.665 25.5515 15.7331 25.7011 15.8573C25.8507 15.9815 25.9521 16.1542 25.9878 16.3454L26.8637 20.977C26.9259 21.3063 27.0859 21.6092 27.3229 21.8462C27.5598 22.0831 27.8627 22.2432 28.192 22.3054L32.8237 23.1812C33.0148 23.2169 33.1875 23.3183 33.3117 23.4679C33.436 23.6176 33.504 23.8059 33.504 24.0004C33.504 24.1948 33.436 24.3832 33.3117 24.5328C33.1875 24.6824 33.0148 24.7838 32.8237 24.8195L28.192 25.6954C27.8627 25.7576 27.5598 25.9176 27.3229 26.1546C27.0859 26.3915 26.9259 26.6944 26.8637 27.0237L25.9878 31.6554C25.9521 31.8465 25.8507 32.0192 25.7011 32.1434C25.5515 32.2677 25.3631 32.3357 25.1687 32.3357C24.9742 32.3357 24.7859 32.2677 24.6363 32.1434C24.4867 32.0192 24.3852 31.8465 24.3495 31.6554L23.4737 27.0237C23.4115 26.6944 23.2514 26.3915 23.0145 26.1546C22.7775 25.9176 22.4746 25.7576 22.1453 25.6954L17.5137 24.8195C17.3225 24.7838 17.1499 24.6824 17.0256 24.5328C16.9014 24.3832 16.8333 24.1948 16.8333 24.0004C16.8333 23.8059 16.9014 23.6176 17.0256 23.4679C17.1499 23.3183 17.3225 23.2169 17.5137 23.1812L22.1453 22.3054C22.4746 22.2432 22.7775 22.0831 23.0145 21.8462C23.2514 21.6092 23.4115 21.3063 23.4737 20.977L24.3495 16.3454Z" stroke="white" stroke-width="1.66667" stroke-linecap="round" stroke-linejoin="round"/>
<path d="M31.8353 15.667V19.0003" stroke="white" stroke-width="1.66667" stroke-linecap="round" stroke-linejoin="round"/>
<path d="M33.502 17.333H30.1687" stroke="white" stroke-width="1.66667" stroke-linecap="round" stroke-linejoin="round"/>
<path d="M18.502 32.3333C19.4225 32.3333 20.1687 31.5871 20.1687 30.6667C20.1687 29.7462 19.4225 29 18.502 29C17.5815 29 16.8353 29.7462 16.8353 30.6667C16.8353 31.5871 17.5815 32.3333 18.502 32.3333Z" stroke="white" stroke-width="1.66667" stroke-linecap="round" stroke-linejoin="round"/>
</g>
<defs>
<filter id="filter0_d_4297_1576" x="-0.831329" y="-2" width="52" height="52" filterUnits="userSpaceOnUse" color-interpolation-filters="sRGB">
<feFlood flood-opacity="0" result="BackgroundImageFix"/>
<feColorMatrix in="SourceAlpha" type="matrix" values="0 0 0 0 0 0 0 0 0 0 0 0 0 0 0 0 0 0 127 0" result="hardAlpha"/>
<feOffset/>
<feGaussianBlur stdDeviation="8"/>
<feColorMatrix type="matrix" values="0 0 0 0 1 0 0 0 0 1 0 0 0 0 1 0 0 0 0.5 0"/>
<feBlend mode="normal" in2="BackgroundImageFix" result="effect1_dropShadow_4297_1576"/>
<feBlend mode="normal" in="SourceGraphic" in2="effect1_dropShadow_4297_1576" result="shape"/>
</filter>
<clipPath id="clip0_4297_1576">
<rect width="20" height="20" fill="white" transform="translate(15.1687 14)"/>
</clipPath>
</defs>
</svg>
